<?xml version="1.0" standalone="no"?>
<!DOCTYPE svg PUBLIC "-//W3C//DTD SVG 20010904//EN"
 "http://www.w3.org/TR/2001/REC-SVG-20010904/DTD/svg10.dtd">
<svg version="1.0" xmlns="http://www.w3.org/2000/svg"
 width="384.000000pt" height="384.000000pt" viewBox="0 0 384.000000 384.000000"
 preserveAspectRatio="xMidYMid meet">

<g transform="translate(0.000000,384.000000) scale(0.100000,-0.100000)"
fill="#000000" stroke="none">
<path d="M2905 3414 c-33 -19 -135 -73 -227 -121 l-167 -87 -3 -945 -3 -946
-31 -85 c-38 -106 -87 -182 -167 -257 -113 -105 -234 -153 -387 -153 -159 0
-284 52 -396 164 -74 75 -120 145 -157 243 -21 57 -22 67 -27 715 l-5 656
-233 -121 -234 -121 5 -536 c4 -434 7 -548 20 -605 64 -288 256 -554 503 -695
101 -58 236 -107 347 -126 122 -22 309 -15 427 16 96 24 240 89 327 147 73 48
192 160 249 235 114 147 196 357 208 533 6 79 19 2126 14 2124 -2 -1 -30 -17
-63 -35z"/>
</g>
</svg>
